<svg id="visual" viewBox="0 0 900 600" width="900" height="600" xmlns="http://www.w3.org/2000/svg" xmlns:xlink="http://www.w3.org/1999/xlink" version="1.1"><rect x="0" y="0" width="900" height="600" fill="#1C0E12"></rect><g fill="none" stroke="#1de7a4" stroke-width="5"><circle r="73" cx="77" cy="344"></circle><circle r="3" cx="772" cy="181"></circle><circle r="59" cx="605" cy="441"></circle><circle r="56" cx="536" cy="218"></circle><circle r="67" cx="830" cy="359"></circle><circle r="6" cx="894" cy="47"></circle><circle r="39" cx="175" cy="193"></circle><circle r="29" cx="358" cy="383"></circle><circle r="8" cx="108" cy="567"></circle><circle r="42" cx="44" cy="111"></circle><circle r="70" cx="316" cy="596"></circle><circle r="69" cx="413" cy="48"></circle><circle r="2" cx="890" cy="513"></circle><circle r="56" cx="563" cy="43"></circle><circle r="60" cx="491" cy="536"></circle><circle r="31" cx="260" cy="16"></circle><circle r="64" cx="719" cy="544"></circle><circle r="22" cx="730" cy="37"></circle><circle r="17" cx="384" cy="223"></circle><circle r="14" cx="664" cy="303"></circle><circle r="14" cx="213" cy="426"></circle></g></svg>