<svg id="visual" viewBox="0 0 1800 100" width="1800" height="100" xmlns="http://www.w3.org/2000/svg" xmlns:xlink="http://www.w3.org/1999/xlink" version="1.1"><path d="M0 28L138 40L277 38L415 40L554 25L692 35L831 34L969 38L1108 25L1246 36L1385 29L1523 32L1662 40L1800 39L1800 0L1662 0L1523 0L1385 0L1246 0L1108 0L969 0L831 0L692 0L554 0L415 0L277 0L138 0L0 0Z" fill="#7e4056"></path><path d="M0 32L138 25L277 31L415 22L554 29L692 33L831 27L969 27L1108 31L1246 33L1385 31L1523 23L1662 29L1800 20L1800 0L1662 0L1523 0L1385 0L1246 0L1108 0L969 0L831 0L692 0L554 0L415 0L277 0L138 0L0 0Z" fill="#994d68"></path><path d="M0 21L138 14L277 25L415 23L554 22L692 15L831 25L969 20L1108 22L1246 25L1385 16L1523 20L1662 20L1800 25L1800 0L1662 0L1523 0L1385 0L1246 0L1108 0L969 0L831 0L692 0L554 0L415 0L277 0L138 0L0 0Z" fill="#b55a7a"></path><path d="M0 12L138 15L277 10L415 14L554 12L692 9L831 10L969 13L1108 9L1246 15L1385 15L1523 14L1662 11L1800 17L1800 0L1662 0L1523 0L1385 0L1246 0L1108 0L969 0L831 0L692 0L554 0L415 0L277 0L138 0L0 0Z" fill="#d2678d"></path><path d="M0 6L138 3L277 6L415 10L554 5L692 9L831 4L969 7L1108 9L1246 6L1385 9L1523 9L1662 5L1800 8L1800 0L1662 0L1523 0L1385 0L1246 0L1108 0L969 0L831 0L692 0L554 0L415 0L277 0L138 0L0 0Z" fill="#f075a0"></path></svg>