<svg id="visual" viewBox="0 0 1800 100" width="1800" height="100" xmlns="http://www.w3.org/2000/svg" xmlns:xlink="http://www.w3.org/1999/xlink" version="1.1"><path d="M0 62L138 66L277 59L415 72L554 58L692 68L831 59L969 61L1108 58L1246 62L1385 72L1523 72L1662 60L1800 63L1800 101L1662 101L1523 101L1385 101L1246 101L1108 101L969 101L831 101L692 101L554 101L415 101L277 101L138 101L0 101Z" fill="#7e4056"></path><path d="M0 76L138 69L277 69L415 67L554 70L692 74L831 78L969 73L1108 74L1246 74L1385 75L1523 73L1662 71L1800 76L1800 101L1662 101L1523 101L1385 101L1246 101L1108 101L969 101L831 101L692 101L554 101L415 101L277 101L138 101L0 101Z" fill="#994d68"></path><path d="M0 78L138 80L277 73L415 78L554 77L692 84L831 74L969 84L1108 76L1246 83L1385 74L1523 75L1662 83L1800 82L1800 101L1662 101L1523 101L1385 101L1246 101L1108 101L969 101L831 101L692 101L554 101L415 101L277 101L138 101L0 101Z" fill="#b55a7a"></path><path d="M0 83L138 80L277 81L415 83L554 86L692 85L831 86L969 80L1108 84L1246 81L1385 80L1523 88L1662 82L1800 82L1800 101L1662 101L1523 101L1385 101L1246 101L1108 101L969 101L831 101L692 101L554 101L415 101L277 101L138 101L0 101Z" fill="#d2678d"></path><path d="M0 94L138 90L277 88L415 93L554 87L692 91L831 87L969 93L1108 92L1246 92L1385 94L1523 88L1662 92L1800 89L1800 101L1662 101L1523 101L1385 101L1246 101L1108 101L969 101L831 101L692 101L554 101L415 101L277 101L138 101L0 101Z" fill="#f075a0"></path></svg>