<svg id="visual" viewBox="0 0 1800 100" width="1800" height="100" xmlns="http://www.w3.org/2000/svg" xmlns:xlink="http://www.w3.org/1999/xlink" version="1.1"><path d="M0 62L33.3 60.2C66.7 58.3 133.3 54.7 200 52.3C266.7 50 333.3 49 400 44.8C466.7 40.7 533.3 33.3 600 28.5C666.7 23.7 733.3 21.3 800 21C866.7 20.7 933.3 22.3 1000 26.8C1066.7 31.3 1133.3 38.7 1200 38.5C1266.7 38.3 1333.3 30.7 1400 30.3C1466.7 30 1533.3 37 1600 41.8C1666.7 46.7 1733.3 49.3 1766.7 50.7L1800 52L1800 0L1766.7 0C1733.3 0 1666.7 0 1600 0C1533.3 0 1466.7 0 1400 0C1333.3 0 1266.7 0 1200 0C1133.3 0 1066.7 0 1000 0C933.3 0 866.7 0 800 0C733.3 0 666.7 0 600 0C533.3 0 466.7 0 400 0C333.3 0 266.7 0 200 0C133.3 0 66.7 0 33.3 0L0 0Z" fill="#7e4056"></path><path d="M0 24L33.3 21.8C66.7 19.7 133.3 15.3 200 13C266.7 10.7 333.3 10.3 400 17.8C466.7 25.3 533.3 40.7 600 44.3C666.7 48 733.3 40 800 37.8C866.7 35.7 933.3 39.3 1000 37.5C1066.7 35.7 1133.3 28.3 1200 23.3C1266.7 18.3 1333.3 15.7 1400 20.8C1466.7 26 1533.3 39 1600 45.8C1666.7 52.7 1733.3 53.3 1766.7 53.7L1800 54L1800 0L1766.7 0C1733.3 0 1666.7 0 1600 0C1533.3 0 1466.7 0 1400 0C1333.3 0 1266.7 0 1200 0C1133.3 0 1066.7 0 1000 0C933.3 0 866.7 0 800 0C733.3 0 666.7 0 600 0C533.3 0 466.7 0 400 0C333.3 0 266.7 0 200 0C133.3 0 66.7 0 33.3 0L0 0Z" fill="#904862"></path><path d="M0 34L33.3 30.7C66.7 27.3 133.3 20.7 200 20.7C266.7 20.7 333.3 27.3 400 30.8C466.7 34.3 533.3 34.7 600 33.3C666.7 32 733.3 29 800 25.3C866.7 21.7 933.3 17.3 1000 16C1066.7 14.7 1133.3 16.3 1200 18.2C1266.7 20 1333.3 22 1400 21.7C1466.7 21.3 1533.3 18.7 1600 18C1666.7 17.3 1733.3 18.7 1766.7 19.3L1800 20L1800 0L1766.7 0C1733.3 0 1666.7 0 1600 0C1533.3 0 1466.7 0 1400 0C1333.3 0 1266.7 0 1200 0C1133.3 0 1066.7 0 1000 0C933.3 0 866.7 0 800 0C733.3 0 666.7 0 600 0C533.3 0 466.7 0 400 0C333.3 0 266.7 0 200 0C133.3 0 66.7 0 33.3 0L0 0Z" fill="#a3506e"></path><path d="M0 10L33.3 10.3C66.7 10.7 133.3 11.3 200 14.7C266.7 18 333.3 24 400 23.2C466.7 22.3 533.3 14.7 600 14.3C666.7 14 733.3 21 800 23.2C866.7 25.3 933.3 22.7 1000 20.7C1066.7 18.7 1133.3 17.3 1200 16.3C1266.7 15.3 1333.3 14.7 1400 14.8C1466.7 15 1533.3 16 1600 16.8C1666.7 17.7 1733.3 18.3 1766.7 18.7L1800 19L1800 0L1766.7 0C1733.3 0 1666.7 0 1600 0C1533.3 0 1466.7 0 1400 0C1333.3 0 1266.7 0 1200 0C1133.3 0 1066.7 0 1000 0C933.3 0 866.7 0 800 0C733.3 0 666.7 0 600 0C533.3 0 466.7 0 400 0C333.3 0 266.7 0 200 0C133.3 0 66.7 0 33.3 0L0 0Z" fill="#b6587a"></path><path d="M0 10L33.3 10.3C66.7 10.7 133.3 11.3 200 12.2C266.7 13 333.3 14 400 14.7C466.7 15.3 533.3 15.7 600 14.2C666.7 12.7 733.3 9.3 800 7.5C866.7 5.7 933.3 5.3 1000 5.2C1066.7 5 1133.3 5 1200 7.3C1266.7 9.7 1333.3 14.3 1400 14.8C1466.7 15.3 1533.3 11.7 1600 11.2C1666.7 10.7 1733.3 13.3 1766.7 14.7L1800 16L1800 0L1766.7 0C1733.3 0 1666.7 0 1600 0C1533.3 0 1466.7 0 1400 0C1333.3 0 1266.7 0 1200 0C1133.3 0 1066.7 0 1000 0C933.3 0 866.7 0 800 0C733.3 0 666.7 0 600 0C533.3 0 466.7 0 400 0C333.3 0 266.7 0 200 0C133.3 0 66.7 0 33.3 0L0 0Z" fill="#ca6186"></path></svg>