<svg id="visual" viewBox="0 0 1800 100" width="1800" height="100" xmlns="http://www.w3.org/2000/svg" xmlns:xlink="http://www.w3.org/1999/xlink" version="1.1"><path d="M0 14L100 14.5C200 15 400 16 600 17.5C800 19 1000 21 1200 24.7C1400 28.3 1600 33.7 1700 36.3L1800 39L1800 0L1700 0C1600 0 1400 0 1200 0C1000 0 800 0 600 0C400 0 200 0 100 0L0 0Z" fill="#7e4056"></path><path d="M0 33L100 30.2C200 27.3 400 21.7 600 21.8C800 22 1000 28 1200 28.5C1400 29 1600 24 1700 21.5L1800 19L1800 0L1700 0C1600 0 1400 0 1200 0C1000 0 800 0 600 0C400 0 200 0 100 0L0 0Z" fill="#a2516e"></path><path d="M0 28L100 25.8C200 23.7 400 19.3 600 19C800 18.7 1000 22.3 1200 22.2C1400 22 1600 18 1700 16L1800 14L1800 0L1700 0C1600 0 1400 0 1200 0C1000 0 800 0 600 0C400 0 200 0 100 0L0 0Z" fill="#c86386"></path><path d="M0 4L100 6C200 8 400 12 600 12C800 12 1000 8 1200 7C1400 6 1600 8 1700 9L1800 10L1800 0L1700 0C1600 0 1400 0 1200 0C1000 0 800 0 600 0C400 0 200 0 100 0L0 0Z" fill="#f075a0"></path></svg>