<svg id="visual" viewBox="0 0 1800 100" width="1800" height="100" xmlns="http://www.w3.org/2000/svg" xmlns:xlink="http://www.w3.org/1999/xlink" version="1.1"><path d="M0 59L200 65L400 68L600 60L800 60L1000 66L1200 70L1400 62L1600 69L1800 64L1800 101L1600 101L1400 101L1200 101L1000 101L800 101L600 101L400 101L200 101L0 101Z" fill="#7e4056"></path><path d="M0 73L200 76L400 71L600 79L800 73L1000 69L1200 75L1400 69L1600 69L1800 69L1800 101L1600 101L1400 101L1200 101L1000 101L800 101L600 101L400 101L200 101L0 101Z" fill="#994d68"></path><path d="M0 74L200 73L400 83L600 82L800 77L1000 77L1200 78L1400 84L1600 80L1800 83L1800 101L1600 101L1400 101L1200 101L1000 101L800 101L600 101L400 101L200 101L0 101Z" fill="#b55a7a"></path><path d="M0 80L200 86L400 86L600 85L800 82L1000 89L1200 83L1400 87L1600 86L1800 88L1800 101L1600 101L1400 101L1200 101L1000 101L800 101L600 101L400 101L200 101L0 101Z" fill="#d2678d"></path><path d="M0 88L200 92L400 91L600 91L800 93L1000 88L1200 92L1400 93L1600 89L1800 90L1800 101L1600 101L1400 101L1200 101L1000 101L800 101L600 101L400 101L200 101L0 101Z" fill="#f075a0"></path></svg>