<svg id="visual" viewBox="0 0 1800 100" width="1800" height="100" xmlns="http://www.w3.org/2000/svg" xmlns:xlink="http://www.w3.org/1999/xlink" version="1.1"><path d="M0 26L200 33L400 28L600 32L800 34L1000 41L1200 31L1400 39L1600 38L1800 27L1800 0L1600 0L1400 0L1200 0L1000 0L800 0L600 0L400 0L200 0L0 0Z" fill="#7e4056"></path><path d="M0 26L200 22L400 26L600 28L800 30L1000 27L1200 20L1400 21L1600 28L1800 21L1800 0L1600 0L1400 0L1200 0L1000 0L800 0L600 0L400 0L200 0L0 0Z" fill="#994d68"></path><path d="M0 18L200 22L400 17L600 23L800 25L1000 15L1200 20L1400 21L1600 19L1800 25L1800 0L1600 0L1400 0L1200 0L1000 0L800 0L600 0L400 0L200 0L0 0Z" fill="#b55a7a"></path><path d="M0 16L200 18L400 8L600 12L800 11L1000 12L1200 15L1400 12L1600 14L1800 11L1800 0L1600 0L1400 0L1200 0L1000 0L800 0L600 0L400 0L200 0L0 0Z" fill="#d2678d"></path><path d="M0 8L200 9L400 11L600 7L800 4L1000 11L1200 6L1400 9L1600 6L1800 8L1800 0L1600 0L1400 0L1200 0L1000 0L800 0L600 0L400 0L200 0L0 0Z" fill="#f075a0"></path></svg>