<svg id="visual" viewBox="0 0 900 100" width="900" height="100" xmlns="http://www.w3.org/2000/svg" xmlns:xlink="http://www.w3.org/1999/xlink" version="1.1"><path d="M0 20L56 20L56 13L113 13L113 27L169 27L169 20L225 20L225 15L281 15L281 15L338 15L338 17L394 17L394 11L450 11L450 8L506 8L506 22L563 22L563 13L619 13L619 8L675 8L675 15L731 15L731 31L788 31L788 15L844 15L844 16L900 16L900 16L900 101L900 101L844 101L844 101L788 101L788 101L731 101L731 101L675 101L675 101L619 101L619 101L563 101L563 101L506 101L506 101L450 101L450 101L394 101L394 101L338 101L338 101L281 101L281 101L225 101L225 101L169 101L169 101L113 101L113 101L56 101L56 101L0 101Z" fill="#7e4056"></path><path d="M0 22L56 22L56 34L113 34L113 33L169 33L169 24L225 24L225 30L281 30L281 32L338 32L338 24L394 24L394 32L450 32L450 41L506 41L506 27L563 27L563 34L619 34L619 27L675 27L675 19L731 19L731 37L788 37L788 32L844 32L844 29L900 29L900 38L900 101L900 101L844 101L844 101L788 101L788 101L731 101L731 101L675 101L675 101L619 101L619 101L563 101L563 101L506 101L506 101L450 101L450 101L394 101L394 101L338 101L338 101L281 101L281 101L225 101L225 101L169 101L169 101L113 101L113 101L56 101L56 101L0 101Z" fill="#904962"></path><path d="M0 51L56 51L56 39L113 39L113 31L169 31L169 45L225 45L225 48L281 48L281 45L338 45L338 47L394 47L394 31L450 31L450 43L506 43L506 34L563 34L563 31L619 31L619 50L675 50L675 49L731 49L731 47L788 47L788 36L844 36L844 43L900 43L900 47L900 101L900 101L844 101L844 101L788 101L788 101L731 101L731 101L675 101L675 101L619 101L619 101L563 101L563 101L506 101L506 101L450 101L450 101L394 101L394 101L338 101L338 101L281 101L281 101L225 101L225 101L169 101L169 101L113 101L113 101L56 101L56 101L0 101Z" fill="#a2516e"></path><path d="M0 51L56 51L56 55L113 55L113 49L169 49L169 56L225 56L225 48L281 48L281 45L338 45L338 47L394 47L394 58L450 58L450 44L506 44L506 48L563 48L563 58L619 58L619 54L675 54L675 48L731 48L731 50L788 50L788 49L844 49L844 51L900 51L900 59L900 101L900 101L844 101L844 101L788 101L788 101L731 101L731 101L675 101L675 101L619 101L619 101L563 101L563 101L506 101L506 101L450 101L450 101L394 101L394 101L338 101L338 101L281 101L281 101L225 101L225 101L169 101L169 101L113 101L113 101L56 101L56 101L0 101Z" fill="#b55a7a"></path><path d="M0 61L56 61L56 56L113 56L113 72L169 72L169 65L225 65L225 69L281 69L281 55L338 55L338 56L394 56L394 68L450 68L450 65L506 65L506 67L563 67L563 68L619 68L619 62L675 62L675 56L731 56L731 58L788 58L788 57L844 57L844 56L900 56L900 71L900 101L900 101L844 101L844 101L788 101L788 101L731 101L731 101L675 101L675 101L619 101L619 101L563 101L563 101L506 101L506 101L450 101L450 101L394 101L394 101L338 101L338 101L281 101L281 101L225 101L225 101L169 101L169 101L113 101L113 101L56 101L56 101L0 101Z" fill="#c86386"></path><path d="M0 69L56 69L56 67L113 67L113 75L169 75L169 78L225 78L225 79L281 79L281 79L338 79L338 75L394 75L394 67L450 67L450 71L506 71L506 73L563 73L563 83L619 83L619 82L675 82L675 76L731 76L731 77L788 77L788 80L844 80L844 73L900 73L900 74L900 101L900 101L844 101L844 101L788 101L788 101L731 101L731 101L675 101L675 101L619 101L619 101L563 101L563 101L506 101L506 101L450 101L450 101L394 101L394 101L338 101L338 101L281 101L281 101L225 101L225 101L169 101L169 101L113 101L113 101L56 101L56 101L0 101Z" fill="#dc6c93"></path><path d="M0 85L56 85L56 88L113 88L113 90L169 90L169 82L225 82L225 81L281 81L281 82L338 82L338 94L394 94L394 92L450 92L450 91L506 91L506 81L563 81L563 80L619 80L619 94L675 94L675 93L731 93L731 90L788 90L788 87L844 87L844 87L900 87L900 86L900 101L900 101L844 101L844 101L788 101L788 101L731 101L731 101L675 101L675 101L619 101L619 101L563 101L563 101L506 101L506 101L450 101L450 101L394 101L394 101L338 101L338 101L281 101L281 101L225 101L225 101L169 101L169 101L113 101L113 101L56 101L56 101L0 101Z" fill="#f075a0"></path></svg>