<svg id="visual" viewBox="0 0 900 100" width="900" height="100" xmlns="http://www.w3.org/2000/svg" xmlns:xlink="http://www.w3.org/1999/xlink" version="1.1"><path d="M0 80L56 80L56 68L113 68L113 80L169 80L169 86L225 86L225 75L281 75L281 69L338 69L338 89L394 89L394 77L450 77L450 82L506 82L506 77L563 77L563 71L619 71L619 69L675 69L675 87L731 87L731 82L788 82L788 85L844 85L844 71L900 71L900 85L900 0L900 0L844 0L844 0L788 0L788 0L731 0L731 0L675 0L675 0L619 0L619 0L563 0L563 0L506 0L506 0L450 0L450 0L394 0L394 0L338 0L338 0L281 0L281 0L225 0L225 0L169 0L169 0L113 0L113 0L56 0L56 0L0 0Z" fill="#7e4056"></path><path d="M0 78L56 78L56 60L113 60L113 59L169 59L169 77L225 77L225 70L281 70L281 73L338 73L338 58L394 58L394 74L450 74L450 67L506 67L506 69L563 69L563 58L619 58L619 79L675 79L675 79L731 79L731 68L788 68L788 75L844 75L844 70L900 70L900 66L900 0L900 0L844 0L844 0L788 0L788 0L731 0L731 0L675 0L675 0L619 0L619 0L563 0L563 0L506 0L506 0L450 0L450 0L394 0L394 0L338 0L338 0L281 0L281 0L225 0L225 0L169 0L169 0L113 0L113 0L56 0L56 0L0 0Z" fill="#904962"></path><path d="M0 62L56 62L56 53L113 53L113 60L169 60L169 58L225 58L225 61L281 61L281 52L338 52L338 55L394 55L394 51L450 51L450 52L506 52L506 60L563 60L563 61L619 61L619 59L675 59L675 52L731 52L731 46L788 46L788 64L844 64L844 52L900 52L900 58L900 0L900 0L844 0L844 0L788 0L788 0L731 0L731 0L675 0L675 0L619 0L619 0L563 0L563 0L506 0L506 0L450 0L450 0L394 0L394 0L338 0L338 0L281 0L281 0L225 0L225 0L169 0L169 0L113 0L113 0L56 0L56 0L0 0Z" fill="#a2516e"></path><path d="M0 44L56 44L56 36L113 36L113 45L169 45L169 41L225 41L225 51L281 51L281 52L338 52L338 45L394 45L394 45L450 45L450 46L506 46L506 38L563 38L563 46L619 46L619 39L675 39L675 46L731 46L731 44L788 44L788 42L844 42L844 37L900 37L900 48L900 0L900 0L844 0L844 0L788 0L788 0L731 0L731 0L675 0L675 0L619 0L619 0L563 0L563 0L506 0L506 0L450 0L450 0L394 0L394 0L338 0L338 0L281 0L281 0L225 0L225 0L169 0L169 0L113 0L113 0L56 0L56 0L0 0Z" fill="#b55a7a"></path><path d="M0 43L56 43L56 26L113 26L113 32L169 32L169 32L225 32L225 28L281 28L281 41L338 41L338 39L394 39L394 28L450 28L450 38L506 38L506 28L563 28L563 30L619 30L619 40L675 40L675 30L731 30L731 27L788 27L788 36L844 36L844 37L900 37L900 31L900 0L900 0L844 0L844 0L788 0L788 0L731 0L731 0L675 0L675 0L619 0L619 0L563 0L563 0L506 0L506 0L450 0L450 0L394 0L394 0L338 0L338 0L281 0L281 0L225 0L225 0L169 0L169 0L113 0L113 0L56 0L56 0L0 0Z" fill="#c86386"></path><path d="M0 21L56 21L56 30L113 30L113 16L169 16L169 26L225 26L225 30L281 30L281 31L338 31L338 28L394 28L394 16L450 16L450 31L506 31L506 20L563 20L563 31L619 31L619 20L675 20L675 29L731 29L731 30L788 30L788 15L844 15L844 26L900 26L900 28L900 0L900 0L844 0L844 0L788 0L788 0L731 0L731 0L675 0L675 0L619 0L619 0L563 0L563 0L506 0L506 0L450 0L450 0L394 0L394 0L338 0L338 0L281 0L281 0L225 0L225 0L169 0L169 0L113 0L113 0L56 0L56 0L0 0Z" fill="#dc6c93"></path><path d="M0 13L56 13L56 9L113 9L113 4L169 4L169 19L225 19L225 14L281 14L281 7L338 7L338 7L394 7L394 10L450 10L450 9L506 9L506 8L563 8L563 7L619 7L619 4L675 4L675 13L731 13L731 17L788 17L788 15L844 15L844 5L900 5L900 14L900 0L900 0L844 0L844 0L788 0L788 0L731 0L731 0L675 0L675 0L619 0L619 0L563 0L563 0L506 0L506 0L450 0L450 0L394 0L394 0L338 0L338 0L281 0L281 0L225 0L225 0L169 0L169 0L113 0L113 0L56 0L56 0L0 0Z" fill="#f075a0"></path></svg>