<svg id="visual" viewBox="0 0 900 100" width="900" height="100" xmlns="http://www.w3.org/2000/svg" xmlns:xlink="http://www.w3.org/1999/xlink" version="1.1"><path d="M0 47L129 47L129 62L257 62L257 59L386 59L386 57L514 57L514 61L643 61L643 45L771 45L771 55L900 55L900 64L900 0L900 0L771 0L771 0L643 0L643 0L514 0L514 0L386 0L386 0L257 0L257 0L129 0L129 0L0 0Z" fill="#7e4056"></path><path d="M0 42L129 42L129 39L257 39L257 44L386 44L386 39L514 39L514 46L643 46L643 37L771 37L771 44L900 44L900 42L900 0L900 0L771 0L771 0L643 0L643 0L514 0L514 0L386 0L386 0L257 0L257 0L129 0L129 0L0 0Z" fill="#a2516e"></path><path d="M0 30L129 30L129 33L257 33L257 24L386 24L386 22L514 22L514 25L643 25L643 25L771 25L771 33L900 33L900 24L900 0L900 0L771 0L771 0L643 0L643 0L514 0L514 0L386 0L386 0L257 0L257 0L129 0L129 0L0 0Z" fill="#c86386"></path><path d="M0 16L129 16L129 7L257 7L257 17L386 17L386 18L514 18L514 7L643 7L643 19L771 19L771 21L900 21L900 19L900 0L900 0L771 0L771 0L643 0L643 0L514 0L514 0L386 0L386 0L257 0L257 0L129 0L129 0L0 0Z" fill="#f075a0"></path></svg>