<svg id="visual" viewBox="0 0 900 100" width="900" height="100" xmlns="http://www.w3.org/2000/svg" xmlns:xlink="http://www.w3.org/1999/xlink" version="1.1"><path d="M0 51L129 51L129 36L257 36L257 39L386 39L386 41L514 41L514 37L643 37L643 53L771 53L771 43L900 43L900 34L900 101L900 101L771 101L771 101L643 101L643 101L514 101L514 101L386 101L386 101L257 101L257 101L129 101L129 101L0 101Z" fill="#7e4056"></path><path d="M0 56L129 56L129 59L257 59L257 54L386 54L386 59L514 59L514 52L643 52L643 61L771 61L771 54L900 54L900 56L900 101L900 101L771 101L771 101L643 101L643 101L514 101L514 101L386 101L386 101L257 101L257 101L129 101L129 101L0 101Z" fill="#a2516e"></path><path d="M0 68L129 68L129 65L257 65L257 74L386 74L386 76L514 76L514 73L643 73L643 73L771 73L771 65L900 65L900 74L900 101L900 101L771 101L771 101L643 101L643 101L514 101L514 101L386 101L386 101L257 101L257 101L129 101L129 101L0 101Z" fill="#c86386"></path><path d="M0 82L129 82L129 91L257 91L257 81L386 81L386 80L514 80L514 91L643 91L643 79L771 79L771 77L900 77L900 79L900 101L900 101L771 101L771 101L643 101L643 101L514 101L514 101L386 101L386 101L257 101L257 101L129 101L129 101L0 101Z" fill="#f075a0"></path></svg>