<svg id="visual" viewBox="0 0 1800 100" width="1800" height="100" xmlns="http://www.w3.org/2000/svg" xmlns:xlink="http://www.w3.org/1999/xlink" version="1.1"><path d="M0 75L42.8 74.2C85.7 73.3 171.3 71.7 257 69.8C342.7 68 428.3 66 514 63.2C599.7 60.3 685.3 56.7 771.2 57.5C857 58.3 943 63.7 1028.8 64.3C1114.7 65 1200.3 61 1286 60.3C1371.7 59.7 1457.3 62.3 1543 63.8C1628.7 65.3 1714.3 65.7 1757.2 65.8L1800 66L1800 101L1757.2 101C1714.3 101 1628.7 101 1543 101C1457.3 101 1371.7 101 1286 101C1200.3 101 1114.7 101 1028.8 101C943 101 857 101 771.2 101C685.3 101 599.7 101 514 101C428.3 101 342.7 101 257 101C171.3 101 85.7 101 42.8 101L0 101Z" fill="#7e4056"></path><path d="M0 64L42.8 67C85.7 70 171.3 76 257 75.7C342.7 75.3 428.3 68.7 514 69C599.7 69.3 685.3 76.7 771.2 80.3C857 84 943 84 1028.8 82.2C1114.7 80.3 1200.3 76.7 1286 73.2C1371.7 69.7 1457.3 66.3 1543 64.2C1628.7 62 1714.3 61 1757.2 60.5L1800 60L1800 101L1757.2 101C1714.3 101 1628.7 101 1543 101C1457.3 101 1371.7 101 1286 101C1200.3 101 1114.7 101 1028.8 101C943 101 857 101 771.2 101C685.3 101 599.7 101 514 101C428.3 101 342.7 101 257 101C171.3 101 85.7 101 42.8 101L0 101Z" fill="#a2516e"></path><path d="M0 72L42.8 74.3C85.7 76.7 171.3 81.3 257 84.5C342.7 87.7 428.3 89.3 514 87.2C599.7 85 685.3 79 771.2 75.3C857 71.7 943 70.3 1028.8 70.8C1114.7 71.3 1200.3 73.7 1286 75.7C1371.7 77.7 1457.3 79.3 1543 81.3C1628.7 83.3 1714.3 85.7 1757.2 86.8L1800 88L1800 101L1757.2 101C1714.3 101 1628.7 101 1543 101C1457.3 101 1371.7 101 1286 101C1200.3 101 1114.7 101 1028.8 101C943 101 857 101 771.2 101C685.3 101 599.7 101 514 101C428.3 101 342.7 101 257 101C171.3 101 85.7 101 42.8 101L0 101Z" fill="#c86386"></path><path d="M0 89L42.8 89.2C85.7 89.3 171.3 89.7 257 90.5C342.7 91.3 428.3 92.7 514 93.2C599.7 93.7 685.3 93.3 771.2 91.5C857 89.7 943 86.3 1028.8 84.2C1114.7 82 1200.3 81 1286 80.7C1371.7 80.3 1457.3 80.7 1543 81C1628.7 81.3 1714.3 81.7 1757.2 81.8L1800 82L1800 101L1757.2 101C1714.3 101 1628.7 101 1543 101C1457.3 101 1371.7 101 1286 101C1200.3 101 1114.7 101 1028.8 101C943 101 857 101 771.2 101C685.3 101 599.7 101 514 101C428.3 101 342.7 101 257 101C171.3 101 85.7 101 42.8 101L0 101Z" fill="#f075a0"></path></svg>