<svg id="visual" viewBox="0 0 1800 100" width="1800" height="100" xmlns="http://www.w3.org/2000/svg" xmlns:xlink="http://www.w3.org/1999/xlink" version="1.1"><path d="M0 67L100 66.5C200 66 400 65 600 62.3C800 59.7 1000 55.3 1200 54.7C1400 54 1600 57 1700 58.5L1800 60L1800 101L1700 101C1600 101 1400 101 1200 101C1000 101 800 101 600 101C400 101 200 101 100 101L0 101Z" fill="#7e4056"></path><path d="M0 80L100 77C200 74 400 68 600 67.3C800 66.7 1000 71.3 1200 72.3C1400 73.3 1600 70.7 1700 69.3L1800 68L1800 101L1700 101C1600 101 1400 101 1200 101C1000 101 800 101 600 101C400 101 200 101 100 101L0 101Z" fill="#a2516e"></path><path d="M0 86L100 85.2C200 84.3 400 82.7 600 81.7C800 80.7 1000 80.3 1200 80.2C1400 80 1600 80 1700 80L1800 80L1800 101L1700 101C1600 101 1400 101 1200 101C1000 101 800 101 600 101C400 101 200 101 100 101L0 101Z" fill="#c86386"></path><path d="M0 79L100 79.3C200 79.7 400 80.3 600 81.2C800 82 1000 83 1200 83.7C1400 84.3 1600 84.7 1700 84.8L1800 85L1800 101L1700 101C1600 101 1400 101 1200 101C1000 101 800 101 600 101C400 101 200 101 100 101L0 101Z" fill="#f075a0"></path></svg>