<svg id="visual" viewBox="0 0 900 100" width="900" height="100" xmlns="http://www.w3.org/2000/svg" xmlns:xlink="http://www.w3.org/1999/xlink" version="1.1"><path d="M0 71L10.7 71.7C21.3 72.3 42.7 73.7 64.2 72.5C85.7 71.3 107.3 67.7 128.8 67C150.3 66.3 171.7 68.7 193 68C214.3 67.3 235.7 63.7 257 63.7C278.3 63.7 299.7 67.3 321.2 67.3C342.7 67.3 364.3 63.7 385.8 61.3C407.3 59 428.7 58 450 60.3C471.3 62.7 492.7 68.3 514.2 68.8C535.7 69.3 557.3 64.7 578.8 64.3C600.3 64 621.7 68 643 69C664.3 70 685.7 68 707 67C728.3 66 749.7 66 771.2 65.8C792.7 65.7 814.3 65.3 835.8 64.7C857.3 64 878.7 63 889.3 62.5L900 62L900 101L889.3 101C878.7 101 857.3 101 835.8 101C814.3 101 792.7 101 771.2 101C749.7 101 728.3 101 707 101C685.7 101 664.3 101 643 101C621.7 101 600.3 101 578.8 101C557.3 101 535.7 101 514.2 101C492.7 101 471.3 101 450 101C428.7 101 407.3 101 385.8 101C364.3 101 342.7 101 321.2 101C299.7 101 278.3 101 257 101C235.7 101 214.3 101 193 101C171.7 101 150.3 101 128.8 101C107.3 101 85.7 101 64.2 101C42.7 101 21.3 101 10.7 101L0 101Z" fill="#7e4056"></path><path d="M0 83L10.7 80.3C21.3 77.7 42.7 72.3 64.2 69.5C85.7 66.7 107.3 66.3 128.8 68.7C150.3 71 171.7 76 193 79.2C214.3 82.3 235.7 83.7 257 81.8C278.3 80 299.7 75 321.2 75C342.7 75 364.3 80 385.8 81.5C407.3 83 428.7 81 450 80.2C471.3 79.3 492.7 79.7 514.2 79.3C535.7 79 557.3 78 578.8 78.5C600.3 79 621.7 81 643 81.7C664.3 82.3 685.7 81.7 707 80C728.3 78.3 749.7 75.7 771.2 74C792.7 72.3 814.3 71.7 835.8 70.8C857.3 70 878.7 69 889.3 68.5L900 68L900 101L889.3 101C878.7 101 857.3 101 835.8 101C814.3 101 792.7 101 771.2 101C749.7 101 728.3 101 707 101C685.7 101 664.3 101 643 101C621.7 101 600.3 101 578.8 101C557.3 101 535.7 101 514.2 101C492.7 101 471.3 101 450 101C428.7 101 407.3 101 385.8 101C364.3 101 342.7 101 321.2 101C299.7 101 278.3 101 257 101C235.7 101 214.3 101 193 101C171.7 101 150.3 101 128.8 101C107.3 101 85.7 101 64.2 101C42.7 101 21.3 101 10.7 101L0 101Z" fill="#b55a7a"></path><path d="M0 80L10.7 81.8C21.3 83.7 42.7 87.3 64.2 88.2C85.7 89 107.3 87 128.8 86.3C150.3 85.7 171.7 86.3 193 86C214.3 85.7 235.7 84.3 257 85.3C278.3 86.3 299.7 89.7 321.2 89.8C342.7 90 364.3 87 385.8 85.2C407.3 83.3 428.7 82.7 450 83.8C471.3 85 492.7 88 514.2 89C535.7 90 557.3 89 578.8 89C600.3 89 621.7 90 643 89.3C664.3 88.7 685.7 86.3 707 84.3C728.3 82.3 749.7 80.7 771.2 80.5C792.7 80.3 814.3 81.7 835.8 82C857.3 82.3 878.7 81.7 889.3 81.3L900 81L900 101L889.3 101C878.7 101 857.3 101 835.8 101C814.3 101 792.7 101 771.2 101C749.7 101 728.3 101 707 101C685.7 101 664.3 101 643 101C621.7 101 600.3 101 578.8 101C557.3 101 535.7 101 514.2 101C492.7 101 471.3 101 450 101C428.7 101 407.3 101 385.8 101C364.3 101 342.7 101 321.2 101C299.7 101 278.3 101 257 101C235.7 101 214.3 101 193 101C171.7 101 150.3 101 128.8 101C107.3 101 85.7 101 64.2 101C42.7 101 21.3 101 10.7 101L0 101Z" fill="#f075a0"></path></svg>