<svg id="visual" viewBox="0 0 900 100" width="900" height="100" xmlns="http://www.w3.org/2000/svg" xmlns:xlink="http://www.w3.org/1999/xlink" version="1.1"><path d="M0 27L10.7 26.3C21.3 25.7 42.7 24.3 64.2 25.5C85.7 26.7 107.3 30.3 128.8 31C150.3 31.7 171.7 29.3 193 30C214.3 30.7 235.7 34.3 257 34.3C278.3 34.3 299.7 30.7 321.2 30.7C342.7 30.7 364.3 34.3 385.8 36.7C407.3 39 428.7 40 450 37.7C471.3 35.3 492.7 29.7 514.2 29.2C535.7 28.7 557.3 33.3 578.8 33.7C600.3 34 621.7 30 643 29C664.3 28 685.7 30 707 31C728.3 32 749.7 32 771.2 32.2C792.7 32.3 814.3 32.7 835.8 33.3C857.3 34 878.7 35 889.3 35.5L900 36L900 0L889.3 0C878.7 0 857.3 0 835.8 0C814.3 0 792.7 0 771.2 0C749.7 0 728.3 0 707 0C685.7 0 664.3 0 643 0C621.7 0 600.3 0 578.8 0C557.3 0 535.7 0 514.2 0C492.7 0 471.3 0 450 0C428.7 0 407.3 0 385.8 0C364.3 0 342.7 0 321.2 0C299.7 0 278.3 0 257 0C235.7 0 214.3 0 193 0C171.7 0 150.3 0 128.8 0C107.3 0 85.7 0 64.2 0C42.7 0 21.3 0 10.7 0L0 0Z" fill="#7e4056"></path><path d="M0 15L10.7 17.7C21.3 20.3 42.7 25.7 64.2 28.5C85.7 31.3 107.3 31.7 128.8 29.3C150.3 27 171.7 22 193 18.8C214.3 15.7 235.7 14.3 257 16.2C278.3 18 299.7 23 321.2 23C342.7 23 364.3 18 385.8 16.5C407.3 15 428.7 17 450 17.8C471.3 18.7 492.7 18.3 514.2 18.7C535.7 19 557.3 20 578.8 19.5C600.3 19 621.7 17 643 16.3C664.3 15.7 685.7 16.3 707 18C728.3 19.7 749.7 22.3 771.2 24C792.7 25.7 814.3 26.3 835.8 27.2C857.3 28 878.7 29 889.3 29.5L900 30L900 0L889.3 0C878.7 0 857.3 0 835.8 0C814.3 0 792.7 0 771.2 0C749.7 0 728.3 0 707 0C685.7 0 664.3 0 643 0C621.7 0 600.3 0 578.8 0C557.3 0 535.7 0 514.2 0C492.7 0 471.3 0 450 0C428.7 0 407.3 0 385.8 0C364.3 0 342.7 0 321.2 0C299.7 0 278.3 0 257 0C235.7 0 214.3 0 193 0C171.7 0 150.3 0 128.8 0C107.3 0 85.7 0 64.2 0C42.7 0 21.3 0 10.7 0L0 0Z" fill="#b55a7a"></path><path d="M0 18L10.7 16.2C21.3 14.3 42.7 10.7 64.2 9.8C85.7 9 107.3 11 128.8 11.7C150.3 12.3 171.7 11.7 193 12C214.3 12.3 235.7 13.7 257 12.7C278.3 11.7 299.7 8.3 321.2 8.2C342.7 8 364.3 11 385.8 12.8C407.3 14.7 428.7 15.3 450 14.2C471.3 13 492.7 10 514.2 9C535.7 8 557.3 9 578.8 9C600.3 9 621.7 8 643 8.7C664.3 9.3 685.7 11.7 707 13.7C728.3 15.7 749.7 17.3 771.2 17.5C792.7 17.7 814.3 16.3 835.8 16C857.3 15.7 878.7 16.3 889.3 16.7L900 17L900 0L889.3 0C878.7 0 857.3 0 835.8 0C814.3 0 792.7 0 771.2 0C749.7 0 728.3 0 707 0C685.7 0 664.3 0 643 0C621.7 0 600.3 0 578.8 0C557.3 0 535.7 0 514.2 0C492.7 0 471.3 0 450 0C428.7 0 407.3 0 385.8 0C364.3 0 342.7 0 321.2 0C299.7 0 278.3 0 257 0C235.7 0 214.3 0 193 0C171.7 0 150.3 0 128.8 0C107.3 0 85.7 0 64.2 0C42.7 0 21.3 0 10.7 0L0 0Z" fill="#f075a0"></path></svg>