<svg id="visual" viewBox="0 0 900 100" width="900" height="100" xmlns="http://www.w3.org/2000/svg" xmlns:xlink="http://www.w3.org/1999/xlink" version="1.1"><path d="M0 66L11.5 64.5C23 63 46 60 69 61.2C92 62.3 115 67.7 138.2 70.2C161.3 72.7 184.7 72.3 207.8 69.8C231 67.3 254 62.7 277 63C300 63.3 323 68.7 346 69.8C369 71 392 68 415.2 67.3C438.3 66.7 461.7 68.3 484.8 69.2C508 70 531 70 554 69.5C577 69 600 68 623 66.3C646 64.7 669 62.3 692.2 61.7C715.3 61 738.7 62 761.8 63.7C785 65.3 808 67.7 831 68.8C854 70 877 70 888.5 70L900 70L900 101L888.5 101C877 101 854 101 831 101C808 101 785 101 761.8 101C738.7 101 715.3 101 692.2 101C669 101 646 101 623 101C600 101 577 101 554 101C531 101 508 101 484.8 101C461.7 101 438.3 101 415.2 101C392 101 369 101 346 101C323 101 300 101 277 101C254 101 231 101 207.8 101C184.7 101 161.3 101 138.2 101C115 101 92 101 69 101C46 101 23 101 11.5 101L0 101Z" fill="#f075a0"></path><path d="M0 91L11.5 90C23 89 46 87 69 84.2C92 81.3 115 77.7 138.2 77.8C161.3 78 184.7 82 207.8 81.8C231 81.7 254 77.3 277 77C300 76.7 323 80.3 346 81.5C369 82.7 392 81.3 415.2 80C438.3 78.7 461.7 77.3 484.8 76.5C508 75.7 531 75.3 554 77.3C577 79.3 600 83.7 623 83.3C646 83 669 78 692.2 77.3C715.3 76.7 738.7 80.3 761.8 83C785 85.7 808 87.3 831 86C854 84.7 877 80.3 888.5 78.2L900 76L900 101L888.5 101C877 101 854 101 831 101C808 101 785 101 761.8 101C738.7 101 715.3 101 692.2 101C669 101 646 101 623 101C600 101 577 101 554 101C531 101 508 101 484.8 101C461.7 101 438.3 101 415.2 101C392 101 369 101 346 101C323 101 300 101 277 101C254 101 231 101 207.8 101C184.7 101 161.3 101 138.2 101C115 101 92 101 69 101C46 101 23 101 11.5 101L0 101Z" fill="#ca6186"></path></svg>