<svg id="visual" viewBox="0 0 900 100" width="900" height="100" xmlns="http://www.w3.org/2000/svg" xmlns:xlink="http://www.w3.org/1999/xlink" version="1.1"><path d="M0 74L15 70.8C30 67.7 60 61.3 90 60.2C120 59 150 63 180 67.7C210 72.3 240 77.7 270 75.3C300 73 330 63 360 57.8C390 52.7 420 52.3 450 58.8C480 65.3 510 78.7 540 80.5C570 82.3 600 72.7 630 69.3C660 66 690 69 720 73.2C750 77.3 780 82.7 810 78.3C840 74 870 60 885 53L900 46L900 101L885 101C870 101 840 101 810 101C780 101 750 101 720 101C690 101 660 101 630 101C600 101 570 101 540 101C510 101 480 101 450 101C420 101 390 101 360 101C330 101 300 101 270 101C240 101 210 101 180 101C150 101 120 101 90 101C60 101 30 101 15 101L0 101Z" fill="#f075a0" stroke-linecap="round" stroke-linejoin="miter"></path></svg>