<svg id="visual" viewBox="0 0 1800 100" width="1800" height="100" xmlns="http://www.w3.org/2000/svg" xmlns:xlink="http://www.w3.org/1999/xlink" version="1.1"><path d="M0 60L21.5 55.8C43 51.7 86 43.3 128.8 38C171.7 32.7 214.3 30.3 257.2 36.2C300 42 343 56 385.8 60.5C428.7 65 471.3 60 514.2 59C557 58 600 61 642.8 58.5C685.7 56 728.3 48 771.2 46.7C814 45.3 857 50.7 900 57.8C943 65 986 74 1028.8 68.8C1071.7 63.7 1114.3 44.3 1157.2 39.3C1200 34.3 1243 43.7 1285.8 50.3C1328.7 57 1371.3 61 1414.2 55C1457 49 1500 33 1542.8 33.8C1585.7 34.7 1628.3 52.3 1671.2 53.7C1714 55 1757 40 1778.5 32.5L1800 25L1800 101L1778.5 101C1757 101 1714 101 1671.2 101C1628.3 101 1585.7 101 1542.8 101C1500 101 1457 101 1414.2 101C1371.3 101 1328.7 101 1285.8 101C1243 101 1200 101 1157.2 101C1114.3 101 1071.7 101 1028.8 101C986 101 943 101 900 101C857 101 814 101 771.2 101C728.3 101 685.7 101 642.8 101C600 101 557 101 514.2 101C471.3 101 428.7 101 385.8 101C343 101 300 101 257.2 101C214.3 101 171.7 101 128.8 101C86 101 43 101 21.5 101L0 101Z" fill="#7e4056"></path><path d="M0 77L21.5 77C43 77 86 77 128.8 71.7C171.7 66.3 214.3 55.7 257.2 48.8C300 42 343 39 385.8 36.8C428.7 34.7 471.3 33.3 514.2 39C557 44.7 600 57.3 642.8 57.5C685.7 57.7 728.3 45.3 771.2 42.5C814 39.7 857 46.3 900 51.8C943 57.3 986 61.7 1028.8 58.5C1071.7 55.3 1114.3 44.7 1157.2 46.2C1200 47.7 1243 61.3 1285.8 63.2C1328.7 65 1371.3 55 1414.2 50.5C1457 46 1500 47 1542.8 45.8C1585.7 44.7 1628.3 41.3 1671.2 43.3C1714 45.3 1757 52.7 1778.5 56.3L1800 60L1800 101L1778.5 101C1757 101 1714 101 1671.2 101C1628.3 101 1585.7 101 1542.8 101C1500 101 1457 101 1414.2 101C1371.3 101 1328.7 101 1285.8 101C1243 101 1200 101 1157.2 101C1114.3 101 1071.7 101 1028.8 101C986 101 943 101 900 101C857 101 814 101 771.2 101C728.3 101 685.7 101 642.8 101C600 101 557 101 514.2 101C471.3 101 428.7 101 385.8 101C343 101 300 101 257.2 101C214.3 101 171.7 101 128.8 101C86 101 43 101 21.5 101L0 101Z" fill="#964b66"></path><path d="M0 69L21.5 71.8C43 74.7 86 80.3 128.8 83.5C171.7 86.7 214.3 87.3 257.2 81.7C300 76 343 64 385.8 61.2C428.7 58.3 471.3 64.7 514.2 70.2C557 75.7 600 80.3 642.8 79.2C685.7 78 728.3 71 771.2 65C814 59 857 54 900 53C943 52 986 55 1028.8 57C1071.7 59 1114.3 60 1157.2 62.3C1200 64.7 1243 68.3 1285.8 70.2C1328.7 72 1371.3 72 1414.2 74.7C1457 77.3 1500 82.7 1542.8 80C1585.7 77.3 1628.3 66.7 1671.2 62.3C1714 58 1757 60 1778.5 61L1800 62L1800 101L1778.5 101C1757 101 1714 101 1671.2 101C1628.3 101 1585.7 101 1542.8 101C1500 101 1457 101 1414.2 101C1371.3 101 1328.7 101 1285.8 101C1243 101 1200 101 1157.2 101C1114.3 101 1071.7 101 1028.8 101C986 101 943 101 900 101C857 101 814 101 771.2 101C728.3 101 685.7 101 642.8 101C600 101 557 101 514.2 101C471.3 101 428.7 101 385.8 101C343 101 300 101 257.2 101C214.3 101 171.7 101 128.8 101C86 101 43 101 21.5 101L0 101Z" fill="#b05676"></path><path d="M0 70L21.5 70.5C43 71 86 72 128.8 75.3C171.7 78.7 214.3 84.3 257.2 84.3C300 84.3 343 78.7 385.8 76.8C428.7 75 471.3 77 514.2 79.5C557 82 600 85 642.8 85.2C685.7 85.3 728.3 82.7 771.2 83.2C814 83.7 857 87.3 900 87.7C943 88 986 85 1028.8 84C1071.7 83 1114.3 84 1157.2 83.2C1200 82.3 1243 79.7 1285.8 78.3C1328.7 77 1371.3 77 1414.2 75.8C1457 74.7 1500 72.3 1542.8 73.7C1585.7 75 1628.3 80 1671.2 81.5C1714 83 1757 81 1778.5 80L1800 79L1800 101L1778.5 101C1757 101 1714 101 1671.2 101C1628.3 101 1585.7 101 1542.8 101C1500 101 1457 101 1414.2 101C1371.3 101 1328.7 101 1285.8 101C1243 101 1200 101 1157.2 101C1114.3 101 1071.7 101 1028.8 101C986 101 943 101 900 101C857 101 814 101 771.2 101C728.3 101 685.7 101 642.8 101C600 101 557 101 514.2 101C471.3 101 428.7 101 385.8 101C343 101 300 101 257.2 101C214.3 101 171.7 101 128.8 101C86 101 43 101 21.5 101L0 101Z" fill="#ca6186"></path></svg>