<svg id="visual" viewBox="0 0 900 600" width="900" height="600" xmlns="http://www.w3.org/2000/svg" xmlns:xlink="http://www.w3.org/1999/xlink" version="1.1"><rect x="0" y="0" width="900" height="600" fill="#1C0E12"></rect><g fill="none" stroke="#1de7a4" stroke-width="5"><circle r="73" cx="395" cy="369"></circle><circle r="3" cx="198" cy="379"></circle><circle r="32" cx="599" cy="597"></circle><circle r="49" cx="753" cy="24"></circle><circle r="71" cx="261" cy="86"></circle><circle r="25" cx="701" cy="292"></circle><circle r="52" cx="859" cy="526"></circle><circle r="56" cx="408" cy="521"></circle><circle r="47" cx="3" cy="552"></circle><circle r="29" cx="408" cy="172"></circle><circle r="56" cx="92" cy="168"></circle><circle r="22" cx="26" cy="370"></circle><circle r="41" cx="568" cy="391"></circle><circle r="55" cx="569" cy="68"></circle><circle r="59" cx="882" cy="375"></circle><circle r="9" cx="819" cy="159"></circle><circle r="69" cx="729" cy="443"></circle><circle r="65" cx="269" cy="239"></circle><circle r="21" cx="421" cy="12"></circle><circle r="49" cx="16" cy="10"></circle><circle r="8" cx="206" cy="593"></circle><circle r="16" cx="549" cy="240"></circle></g></svg>