<svg id="visual" viewBox="0 0 900 600" width="900" height="600" xmlns="http://www.w3.org/2000/svg" xmlns:xlink="http://www.w3.org/1999/xlink" version="1.1"><rect x="0" y="0" width="900" height="600" fill="#1C0E12"></rect><g fill="none" stroke="#1de7a4" stroke-width="5"><circle r="73" cx="433" cy="119"></circle><circle r="3" cx="531" cy="365"></circle><circle r="54" cx="244" cy="181"></circle><circle r="66" cx="779" cy="49"></circle><circle r="61" cx="78" cy="503"></circle><circle r="3" cx="807" cy="530"></circle><circle r="67" cx="526" cy="544"></circle><circle r="11" cx="572" cy="2"></circle><circle r="62" cx="82" cy="32"></circle><circle r="11" cx="14" cy="225"></circle><circle r="13" cx="208" cy="383"></circle><circle r="33" cx="310" cy="526"></circle><circle r="22" cx="792" cy="367"></circle><circle r="70" cx="881" cy="232"></circle><circle r="19" cx="355" cy="320"></circle><circle r="45" cx="687" cy="186"></circle><circle r="60" cx="279" cy="19"></circle><circle r="23" cx="660" cy="447"></circle></g></svg>