<svg id="visual" viewBox="0 0 900 600" width="900" height="600" xmlns="http://www.w3.org/2000/svg" xmlns:xlink="http://www.w3.org/1999/xlink" version="1.1"><rect x="0" y="0" width="900" height="600" fill="#1C0E12"></rect><g fill="none" stroke="#1de7a4" stroke-width="5"><circle r="73" cx="437" cy="159"></circle><circle r="3" cx="157" cy="61"></circle><circle r="47" cx="792" cy="593"></circle><circle r="43" cx="748" cy="306"></circle><circle r="53" cx="204" cy="482"></circle><circle r="68" cx="569" cy="545"></circle><circle r="7" cx="553" cy="14"></circle><circle r="59" cx="406" cy="585"></circle><circle r="6" cx="9" cy="493"></circle><circle r="45" cx="197" cy="219"></circle><circle r="12" cx="7" cy="190"></circle><circle r="50" cx="469" cy="392"></circle><circle r="11" cx="629" cy="149"></circle><circle r="17" cx="795" cy="84"></circle><circle r="40" cx="402" cy="4"></circle><circle r="56" cx="72" cy="336"></circle><circle r="65" cx="338" cy="289"></circle><circle r="63" cx="879" cy="404"></circle><circle r="39" cx="893" cy="221"></circle><circle r="18" cx="694" cy="464"></circle></g></svg>