<svg id="visual" viewBox="0 0 900 600" width="900" height="600" xmlns="http://www.w3.org/2000/svg" xmlns:xlink="http://www.w3.org/1999/xlink" version="1.1"><rect x="0" y="0" width="900" height="600" fill="#1C0E12"></rect><g fill="none" stroke="#1de7a4" stroke-width="5"><circle r="73" cx="514" cy="476"></circle><circle r="3" cx="169" cy="274"></circle><circle r="6" cx="772" cy="341"></circle><circle r="64" cx="876" cy="158"></circle><circle r="49" cx="578" cy="190"></circle><circle r="34" cx="284" cy="87"></circle><circle r="7" cx="552" cy="9"></circle><circle r="27" cx="414" cy="257"></circle><circle r="49" cx="325" cy="395"></circle><circle r="39" cx="74" cy="454"></circle><circle r="54" cx="14" cy="116"></circle><circle r="34" cx="761" cy="36"></circle><circle r="51" cx="893" cy="555"></circle><circle r="41" cx="746" cy="526"></circle><circle r="25" cx="303" cy="555"></circle><circle r="21" cx="136" cy="14"></circle><circle r="15" cx="621" cy="344"></circle><circle r="3" cx="8" cy="269"></circle><circle r="70" cx="11" cy="593"></circle></g></svg>