<svg id="visual" viewBox="0 0 900 100" width="900" height="100" xmlns="http://www.w3.org/2000/svg" xmlns:xlink="http://www.w3.org/1999/xlink" version="1.1"><path d="M0 54L75 58L150 53L225 68L300 62L375 67L450 62L525 59L600 67L675 51L750 53L825 49L900 67L900 101L825 101L750 101L675 101L600 101L525 101L450 101L375 101L300 101L225 101L150 101L75 101L0 101Z" fill="#7e4056"></path><path d="M0 67L75 73L150 73L225 61L300 61L375 62L450 68L525 68L600 61L675 74L750 69L825 59L900 62L900 101L825 101L750 101L675 101L600 101L525 101L450 101L375 101L300 101L225 101L150 101L75 101L0 101Z" fill="#994d68"></path><path d="M0 69L75 69L150 72L225 78L300 71L375 73L450 74L525 80L600 75L675 67L750 75L825 70L900 72L900 101L825 101L750 101L675 101L600 101L525 101L450 101L375 101L300 101L225 101L150 101L75 101L0 101Z" fill="#b55a7a"></path><path d="M0 79L75 88L150 78L225 87L300 88L375 77L450 85L525 87L600 84L675 76L750 88L825 75L900 83L900 101L825 101L750 101L675 101L600 101L525 101L450 101L375 101L300 101L225 101L150 101L75 101L0 101Z" fill="#d2678d"></path><path d="M0 93L75 88L150 91L225 86L300 93L375 87L450 88L525 85L600 93L675 89L750 90L825 84L900 87L900 101L825 101L750 101L675 101L600 101L525 101L450 101L375 101L300 101L225 101L150 101L75 101L0 101Z" fill="#f075a0"></path></svg>