<svg id="visual" viewBox="0 0 900 100" width="900" height="100" xmlns="http://www.w3.org/2000/svg" xmlns:xlink="http://www.w3.org/1999/xlink" version="1.1"><path d="M0 42L75 29L150 39L225 40L300 39L375 44L450 48L525 41L600 47L675 42L750 38L825 41L900 36L900 0L825 0L750 0L675 0L600 0L525 0L450 0L375 0L300 0L225 0L150 0L75 0L0 0Z" fill="#7e4056"></path><path d="M0 34L75 37L150 34L225 28L300 24L375 32L450 39L525 33L600 40L675 26L750 39L825 36L900 34L900 0L825 0L750 0L675 0L600 0L525 0L450 0L375 0L300 0L225 0L150 0L75 0L0 0Z" fill="#994d68"></path><path d="M0 31L75 31L150 25L225 26L300 25L375 29L450 17L525 25L600 23L675 25L750 19L825 29L900 27L900 0L825 0L750 0L675 0L600 0L525 0L450 0L375 0L300 0L225 0L150 0L75 0L0 0Z" fill="#b55a7a"></path><path d="M0 17L75 13L150 17L225 11L300 16L375 13L450 14L525 19L600 17L675 20L750 12L825 14L900 11L900 0L825 0L750 0L675 0L600 0L525 0L450 0L375 0L300 0L225 0L150 0L75 0L0 0Z" fill="#d2678d"></path><path d="M0 13L75 12L150 6L225 13L300 13L375 5L450 6L525 5L600 10L675 10L750 12L825 10L900 13L900 0L825 0L750 0L675 0L600 0L525 0L450 0L375 0L300 0L225 0L150 0L75 0L0 0Z" fill="#f075a0"></path></svg>